<svg width="162" height="29" viewBox="0 0 162 29" fill="none" xmlns="http://www.w3.org/2000/svg">
<g clip-path="url(#clip0_2755_2)">
<path d="M30 11.1H18.55L15 0L11.45 11.1H0L9.25 17.95L5.75 29L15 22.15L24.25 29L20.7 17.9L30 11.1Z" fill="#FFCE31"/>
<path d="M162 11.1H150.55L147 0L143.45 11.1H132L141.25 17.95L137.75 29L147 22.15L156.25 29L152.7 17.9L162 11.1Z" fill="#808080"/>
<path d="M129 11.1H117.55L114 0L110.45 11.1H99L108.25 17.95L104.75 29L114 22.15L123.25 29L119.7 17.9L129 11.1Z" fill="#808080"/>
<path d="M96 11.1H84.55L81 0L77.45 11.1H66L75.25 17.95L71.75 29L81 22.15L90.25 29L86.7 17.9L96 11.1Z" fill="#FFCE31"/>
<path d="M63 11.1H51.55L48 0L44.45 11.1H33L42.25 17.95L38.75 29L48 22.15L57.25 29L53.7 17.9L63 11.1Z" fill="#FFCE31"/>
</g>
<defs>
<clipPath id="clip0_2755_2">
<rect width="162" height="29" fill="white"/>
</clipPath>
</defs>
</svg>
