<svg width="70" height="70" viewBox="0 0 70 70" fill="none" xmlns="http://www.w3.org/2000/svg">
<path d="M65.7804 27.7258C64.484 26.3646 63.1228 24.9581 62.5395 23.5775C62.0047 22.2811 61.9788 20.4889 61.9496 18.5833C61.9043 15.6665 61.8556 12.364 59.7361 10.2412C57.6166 8.11843 54.3108 8.07306 51.394 8.02769C49.4884 7.99852 47.6897 7.97259 46.3998 7.43784C45.0192 6.86745 43.6127 5.516 42.2515 4.21316C40.0866 2.13575 37.8471 0 34.9854 0C32.1237 0 29.8843 2.14547 27.7193 4.21316C26.3582 5.50951 24.9516 6.87069 23.571 7.45405C22.2746 7.9888 20.4824 8.01472 18.5768 8.04389C15.66 8.08926 12.3575 8.13788 10.2347 10.2574C8.11195 12.377 8.07306 15.6665 8.02769 18.5833C7.99852 20.4889 7.97259 22.2876 7.43784 23.5775C6.86745 24.9581 5.516 26.3646 4.21316 27.7258C2.13575 29.8907 0 32.1302 0 34.9919C0 37.8536 2.14547 40.0931 4.21316 42.258C5.50951 43.6191 6.87069 45.0257 7.45405 46.4063C7.9888 47.7027 8.01472 49.4949 8.04389 51.4005C8.08926 54.3173 8.13788 57.6198 10.2574 59.7426C12.377 61.8654 15.6827 61.9107 18.5995 61.9561C20.5051 61.9853 22.3038 62.0112 23.5937 62.546C24.9743 63.1164 26.3809 64.4678 27.742 65.7706C29.9069 67.848 32.1464 69.9838 35.0081 69.9838C37.8698 69.9838 40.1093 67.8383 42.2742 65.7706C43.6354 64.4743 45.0419 63.1131 46.4225 62.5297C47.7189 61.995 49.5111 61.9691 51.4167 61.9399C54.3335 61.8945 57.636 61.8459 59.7588 59.7264C61.8816 57.6068 61.9269 54.3011 61.9723 51.3843C62.0015 49.4787 62.0274 47.68 62.5622 46.3901C63.1326 45.0095 64.484 43.6029 65.7868 42.2418C67.8643 40.0769 70 37.8374 70 34.9757C70 32.114 67.848 29.8907 65.7804 27.7258ZM63.9071 40.4625C62.4358 41.9955 60.9125 43.5835 60.1574 45.4146C59.4347 47.1614 59.4023 49.3037 59.3699 51.3616C59.331 54.0192 59.2921 56.5471 57.9147 57.9082C56.5373 59.2694 54.0256 59.3245 51.3681 59.3634C49.3037 59.3958 47.155 59.4282 45.4211 60.1509C43.59 60.9061 42.0019 62.4196 40.469 63.9006C38.586 65.6993 36.8133 67.4008 34.9919 67.4008C33.1705 67.4008 31.3978 65.6993 29.5213 63.9006C27.9883 62.4293 26.4003 60.9061 24.5692 60.1509C22.8224 59.4282 20.6801 59.3958 18.6222 59.3634C15.9646 59.3245 13.4529 59.2856 12.0756 57.9082C10.6982 56.5309 10.6593 54.0192 10.6204 51.3616C10.588 49.2972 10.5556 47.1485 9.83286 45.4146C9.07773 43.5835 7.56424 41.9955 6.08315 40.4625C4.28446 38.586 2.58299 36.8133 2.58299 34.9919C2.58299 33.1705 4.28446 31.3978 6.08315 29.5213C7.55452 27.9883 9.07773 26.4003 9.83286 24.5692C10.5556 22.8224 10.588 20.6801 10.6204 18.6222C10.6593 15.9646 10.6982 13.4529 12.0756 12.0756C13.4529 10.6982 15.9646 10.6593 18.6222 10.6204C20.6866 10.588 22.8353 10.5556 24.5692 9.83286C26.4003 9.07773 27.9883 7.56424 29.5213 6.08315C31.3978 4.28446 33.1705 2.58299 34.9919 2.58299C36.8133 2.58299 38.586 4.28446 40.4625 6.08315C41.9955 7.55452 43.5835 9.07773 45.4146 9.83286C47.1614 10.5556 49.3037 10.588 51.3616 10.6204C54.0192 10.6593 56.5471 10.6982 57.9082 12.0756C59.2694 13.4529 59.3245 15.9646 59.3634 18.6222C59.3958 20.6866 59.4282 22.8353 60.1509 24.5692C60.9061 26.4003 62.4196 27.9883 63.9006 29.5213C65.6993 31.3978 67.4008 33.1705 67.4008 34.9919C67.4008 36.8133 65.6993 38.586 63.9006 40.4625H63.9071ZM48.8791 26.2966C48.9996 26.417 49.0953 26.56 49.1605 26.7173C49.2257 26.8747 49.2593 27.0434 49.2593 27.2138C49.2593 27.3841 49.2257 27.5528 49.1605 27.7102C49.0953 27.8676 48.9996 28.0105 48.8791 28.1309L30.7301 46.2799C30.6097 46.4005 30.4668 46.4961 30.3094 46.5613C30.152 46.6265 29.9833 46.6601 29.813 46.6601C29.6426 46.6601 29.4739 46.6265 29.3165 46.5613C29.1592 46.4961 29.0162 46.4005 28.8958 46.2799L21.1176 38.5018C20.8744 38.2585 20.7377 37.9286 20.7377 37.5846C20.7377 37.2406 20.8744 36.9107 21.1176 36.6674C21.3609 36.4242 21.6908 36.2875 22.0348 36.2875C22.3788 36.2875 22.7087 36.4242 22.952 36.6674L29.8065 43.5284L47.0383 26.2966C47.1587 26.1761 47.3017 26.0804 47.459 26.0152C47.6164 25.95 47.7851 25.9164 47.9555 25.9164C48.1258 25.9164 48.2945 25.95 48.4519 26.0152C48.6093 26.0804 48.7522 26.1761 48.8726 26.2966H48.8791Z" fill="#FF9023"/>
</svg>
