<svg width="40" height="40" viewBox="0 0 40 40" fill="none" xmlns="http://www.w3.org/2000/svg">
<path d="M37.4687 31.2278L31.1341 24.8931L26.2616 22.8801C27.8839 20.5729 28.7531 17.8205 28.75 15C28.75 7.4182 22.5818 1.25 15 1.25C7.4182 1.25 1.25 7.4182 1.25 15C1.25 22.5818 7.4182 28.75 15 28.75C17.845 28.7532 20.6202 27.869 22.939 26.2205L24.9468 31.0799L31.2812 37.4149C31.6875 37.8212 32.1698 38.1435 32.7006 38.3634C33.2314 38.5832 33.8003 38.6964 34.3749 38.6964C34.9494 38.6965 35.5183 38.5833 36.0491 38.3635C36.58 38.1436 37.0623 37.8214 37.4686 37.4151C37.8748 37.0089 38.1971 36.5266 38.417 35.9958C38.6369 35.465 38.7501 34.896 38.7501 34.3215C38.7501 33.747 38.637 33.178 38.4171 32.6472C38.1972 32.1164 37.875 31.6341 37.4687 31.2278V31.2278ZM3.75 15C3.75 8.79687 8.79687 3.75 15 3.75C21.2031 3.75 26.25 8.79687 26.25 15C26.25 21.2031 21.2031 26.25 15 26.25C8.79687 26.25 3.75 21.2031 3.75 15ZM35.7009 35.6472C35.3489 35.9983 34.8721 36.1955 34.375 36.1955C33.8779 36.1955 33.4011 35.9983 33.0491 35.6472L27.067 29.665L25.2002 25.1466L29.7187 27.0134L35.701 32.9955C36.0521 33.3475 36.2492 33.8243 36.2492 34.3214C36.2492 34.8185 36.052 35.2953 35.7009 35.6472V35.6472Z" fill="#9B9B9B"/>
</svg>
